# xmcd
#
# Track frame offsets:
#	150
#	20682
#	39343
#	59891
#	79990
#	99895
#	122355
#	141338
#	159970
#	179706
#
# Disc length: 2536 seconds
#
# Revision: 1
# Processed by: cddbd v1.5.2PL0 Copyright (c) Steve Scherf et al.
# Submitted via: EasyCDDAExtractor 15.2.5.1
#
DISCID=8409e60a
DTITLE=김성호 - 5집 vol.5 (2001) by oreum.com
DYEAR=2001
DGENRE=Pop
TTITLE0=어른이 되면서
TTITLE1=약속된 우연
TTITLE2=찬바람이 불면 - 김지연
TTITLE3=너를 처음 만난 그때
TTITLE4=한번만 더
TTITLE5=당신은 천사와 커피를 마셔본 적이 있습니까
TTITLE6=김성호의 회상
TTITLE7=웃는 여잔 다 이뻐
TTITLE8=그사랑 그사랑 어디서 오는걸까
TTITLE9=눈 오는 저녁
EXTD=
EXTT0=
EXTT1=
EXTT2=
EXTT3=
EXTT4=
EXTT5=
EXTT6=
EXTT7=
EXTT8=
EXTT9=
PLAYORDER=
